<?xml version="1.0" encoding="utf-8"?>
<!-- Generator: Adobe Illustrator 23.0.4, SVG Export Plug-In . SVG Version: 6.00 Build 0)  -->
<svg version="1.1" id="Laag_1" xmlns="http://www.w3.org/2000/svg" xmlns:xlink="http://www.w3.org/1999/xlink" x="0px" y="0px"
	 viewBox="0 0 152.8 153.3" style="enable-background:new 0 0 152.8 153.3;" xml:space="preserve">
<style type="text/css">
	.st0{fill:#017BAD;}
	.st1{fill:#DD2939;}
	.st2{fill:#FEFEFE;}
</style>
<g>
	<path class="st0" d="M75.4,151.6c-1.3-0.3-2.3-1.2-3.2-2.1C62.1,139.4,52,129.3,42,119.2c-1.3-1.3-1.9-2.9-1.3-4.7
		c0.2-0.6,0.5-1.1,0.9-1.6c0.1-0.2,0.3-0.3,0.4-0.4C65.5,89,89,65.5,112.5,42c1.4-1.4,2.9-1.9,4.8-1.3c0.7,0.2,1.3,0.6,1.8,1.1
		c10.4,10.4,20.8,20.8,31.1,31.1c0.7,0.7,1.1,1.6,1.4,2.5c0,0.5,0,0.9,0,1.4c-0.3,1.4-1.2,2.3-2.2,3.3
		c-23.1,23.1-46.2,46.2-69.3,69.3c-1,1-1.9,1.8-3.3,2.2C76.3,151.6,75.9,151.6,75.4,151.6z M104.2,100.9c-0.3,0-0.6,0-0.9,0
		c-2.1,0-3.5,1.5-3.3,3.6c0.4,3.7,4,7.4,7.6,7.9c2.4,0.3,3.9-1.1,3.9-3.5c0-0.2,0-0.5,0-0.9c0.4,0.5,0.8,0.8,1.1,1.2
		c0.2,0.3,0.4,0.2,0.6,0c1-1,2-2,3-3c0.3-0.3,0.3-0.4,0-0.7c-3-3-6-6-9-9c-0.3-0.3-0.4-0.2-0.7,0c-0.8,0.9-1.7,1.7-2.6,2.6
		c-0.7,0.7-0.7,0.7,0,1.5C104.1,100.7,104.2,100.8,104.2,100.9C104.2,100.9,104.2,100.9,104.2,100.9z M74,97.9
		c-0.3-0.1-0.5-0.4-0.6-0.6c-0.3-0.3-0.4-0.3-0.7,0c-0.9,0.9-1.8,1.8-2.7,2.8c-0.3,0.3-0.3,0.4,0,0.7c2.9,2.9,5.7,5.7,8.6,8.6
		c0.3,0.3,0.4,0.2,0.7,0c0.8-0.9,1.7-1.7,2.6-2.6c0.3-0.3,0.3-0.5,0-0.8c-1.5-1.4-2.9-2.9-4.4-4.3c-0.3-0.3-0.7-0.6-1-1
		c-0.3-0.4-0.3-1,0-1.3c0.4-0.4,0.8-0.3,1.3-0.1c0.1,0.1,0.2,0.2,0.4,0.3c1.7,1.7,3.4,3.4,5.1,5.1c0.2,0.2,0.4,0.3,0.6,0
		c0.9-1,1.9-1.9,2.9-2.9c0.2-0.2,0.3-0.4,0-0.6c-0.5-0.5-1-1-1.5-1.5c-1.3-1.3-2.6-2.6-3.9-3.9c-0.4-0.4-0.5-0.8-0.2-1.3
		c0.3-0.5,0.7-0.4,1.2-0.3c0.2,0.1,0.4,0.3,0.5,0.4c1.7,1.7,3.3,3.3,5,5c0.4,0.4,0.6,0.5,1,0c0.8-0.8,1.6-1.6,2.4-2.4
		c0.4-0.3,0.4-0.5,0-0.9c-2.4-2.4-4.8-4.7-7.1-7.1c-0.6-0.6-1.2-0.7-2-0.6c-2.2,0.3-3.5,2.1-3.3,4.4c0,0.3,0,0.4-0.3,0.3
		c-0.4-0.1-0.7-0.1-1.1,0C75.2,93.8,74,95.4,74,97.9C74,97.8,74,97.9,74,97.9z M65.2,120.8c0-0.4,0-0.8-0.1-1.2
		c-0.7-4.4-4.9-8.9-9.2-9.8c-2-0.4-3.9-0.2-5.5,1.3c-1.4,1.3-2.7,2.7-4.1,4.1c-0.3,0.3-0.3,0.4,0,0.7c4.3,4.3,8.6,8.5,12.8,12.8
		c0.3,0.3,0.5,0.2,0.7,0c1.2-1.2,2.4-2.4,3.6-3.6C64.7,123.9,65.1,122.4,65.2,120.8z M71.3,126.3c-2.1,0-3.7,0.7-5,2
		c-1.1,1.1-2.3,2.3-3.4,3.4c-0.3,0.3-0.3,0.5,0,0.8c4.4,4.4,8.8,8.8,13.2,13.2c0.3,0.3,0.4,0.3,0.7,0c1-1.1,2.1-2.1,3.1-3.1
		c0.3-0.3,0.3-0.5,0-0.8c-1.3-1.3-2.5-2.5-3.8-3.8c-0.3-0.3-0.4-0.5,0-0.9c1.7-2.1,2.1-4.5,0.9-7C75.8,127.7,73.8,126.5,71.3,126.3z
		 M93.6,79.3c-0.5-0.5-0.8-0.8-1.2-1.2c-0.2-0.3-0.4-0.3-0.6,0c-0.9,0.9-1.8,1.8-2.7,2.7c-0.3,0.2-0.2,0.4,0,0.6
		c2.9,2.9,5.8,5.8,8.6,8.6c0.2,0.2,0.4,0.3,0.6,0c0.9-0.9,1.8-1.8,2.7-2.7c0.3-0.3,0.2-0.4,0-0.6c-1-1-2-2-3-3
		c-0.8-0.8-1.5-1.5-2.3-2.3c-0.4-0.4-0.4-1.1-0.1-1.4c0.3-0.4,1-0.3,1.4,0.1c0.1,0.1,0.2,0.2,0.3,0.3c1.7,1.7,3.3,3.3,5,5
		c0.3,0.3,0.5,0.3,0.8,0c0.8-0.9,1.7-1.7,2.5-2.5c0.3-0.3,0.3-0.4,0-0.7c-2.2-2.1-4.3-4.3-6.5-6.5c-0.5-0.5-1.2-0.8-1.9-0.9
		C95.2,74.5,92.9,76.4,93.6,79.3z M69.9,116.5c3.1-0.1,5.5-2.8,5.2-5.8c-0.3-3.2-3.3-6.4-6.5-7.1c-3.7-0.7-6.9,2.2-6.4,5.9
		c0.4,2.8,2.2,4.8,4.6,6.1C67.8,116.2,68.8,116.5,69.9,116.5z M105.6,65.6c-3.5,0-6,2.9-5.6,6c0.5,3.2,3.3,6.2,6.5,6.9
		c2.8,0.6,5.7-1.2,6.3-4c0.4-1.9-0.1-3.5-1.1-5C110.2,67.2,108.1,65.8,105.6,65.6z M97.6,105.7c-0.1,0.1-0.2,0.1-0.2,0.1
		c-2.3,2.3-4.6,4.6-6.9,6.9c-0.2,0.2-0.1,0.4,0,0.6c0.6,0.7,1.3,1.4,1.8,2.1c0.3,0.4,0.5,0.4,0.8,0c0.8-0.8,1.6-1.6,2.5-2.5
		c1.2,3.5,2.5,6.8,3.7,10.2c2.5-2.5,5-5,7.5-7.5c0.2-0.2,0.2-0.4,0-0.6c-0.5-0.5-1-1-1.5-1.5c-0.4-0.4-0.7-1-1.1-1
		c-0.5,0-0.8,0.6-1.2,1c-0.6,0.6-1.1,1.1-1.7,1.7C100,112.2,98.8,109,97.6,105.7z M86.9,121.7c1.3,3.4,2.6,6.7,3.9,10
		c0.1-0.1,0.2-0.1,0.2-0.1c2.4-2.3,4.7-4.7,7.1-7c0.2-0.2,0.2-0.4,0-0.6c-0.8-0.7-1.5-1.5-2.2-2.2c-0.3-0.3-0.5-0.3-0.8,0
		c-0.8,0.8-1.6,1.7-2.5,2.5c-1.2-3.3-2.4-6.5-3.7-9.9c-2.4,2.4-4.7,4.8-7.1,7.1c-0.2,0.2-0.2,0.3,0,0.5c0.7,0.7,1.4,1.3,2,2
		c0.3,0.3,0.5,0.3,0.8,0C85.3,123.2,86.1,122.5,86.9,121.7z M111.8,58.5c0,0.8,0.2,1.5,0.5,2.2c1.1,2.1,3.5,2.6,5,1.6
		c0.7-0.5,1.6-0.7,2.4-0.7c0.4,0,0.8,0.1,0.9,0.5c0.2,0.4-0.1,0.7-0.4,1c-0.5,0.5-1.2,0.8-1.9,1.1c-0.3,0.1-0.4,0.2-0.3,0.6
		c0.2,0.8,0.4,1.5,0.6,2.3c0.1,0.3,0.2,0.4,0.5,0.3c1.2-0.3,2.2-0.8,3.2-1.4c1.1-0.7,1.9-1.7,2.3-3c0.5-1.6,0-3.2-1.3-4.3
		c-1.4-1.1-3.3-1.3-4.7-0.5c-0.6,0.3-1.2,0.6-1.8,0.6c-0.4,0-0.8,0-1-0.4c-0.2-0.4,0.1-0.8,0.4-1c0.6-0.5,1.2-0.8,1.9-1.1
		c0.3-0.1,0.4-0.2,0.3-0.6c-0.3-0.9-0.6-1.8-0.9-2.7c-0.1-0.3-0.2-0.3-0.5-0.2c-1.1,0.4-2.2,1-3.2,1.7
		C112.6,55.5,111.8,56.8,111.8,58.5z M89.8,132.7c-0.1-0.1-0.2-0.2-0.2-0.3c-3-3-6.1-6.1-9.1-9.1c-0.2-0.2-0.4-0.2-0.6,0
		c-0.9,1-1.9,1.9-2.9,2.9c-0.2,0.2-0.3,0.3,0,0.6c3,3,6.1,6.1,9.1,9.1c0.2,0.2,0.4,0.2,0.6,0c0.9-1,1.9-1.9,2.9-2.9
		C89.6,132.9,89.7,132.8,89.8,132.7z M96.5,91.9c-0.1-0.1-0.1-0.2-0.2-0.2c-2.9-2.9-5.8-5.8-8.7-8.7c-0.2-0.2-0.4-0.2-0.6,0
		c-0.9,1-1.9,1.9-2.9,2.9c-0.2,0.2-0.3,0.3,0,0.6c2.9,2.9,5.8,5.8,8.7,8.7c0.2,0.2,0.3,0.2,0.5,0c1-1,1.9-2,2.9-2.9
		C96.4,92.1,96.4,92,96.5,91.9z M109,64.5c0.8-0.8,1.5-1.5,2.2-2.3c0.2-0.2,0.2-0.3,0.1-0.6c-1.1-2.5-2.2-5-3.3-7.6
		c-0.2-0.4-0.3-0.3-0.5-0.1c-0.9,0.9-1.8,1.9-2.8,2.8c-0.3,0.3-0.3,0.5-0.1,0.8c1.3,2,2.5,4,3.8,6C108.5,63.9,108.7,64.2,109,64.5z
		 M82.1,83.8c1.6,0,2.9-1.2,2.9-2.8c0-1.6-1.3-2.8-2.8-2.8c-1.6,0-2.8,1.2-2.9,2.8C79.3,82.5,80.6,83.8,82.1,83.8z M75.6,124.7
		c1.6,0,2.8-1.3,2.8-2.8c0-1.6-1.3-2.9-2.9-2.8c-1.6,0-2.8,1.3-2.8,2.9C72.7,123.5,74,124.8,75.6,124.7z"/>
	<path class="st1" d="M77.2,1c1.4,0.3,2.3,1.2,3.3,2.1c10,10.1,20.1,20.1,30.2,30.2c1.3,1.3,1.9,2.9,1.3,4.7
		c-0.2,0.7-0.6,1.3-1.1,1.8C99.9,50.8,88.9,61.7,78,72.6c-0.3,0.3-0.4,0.3-0.7,0C65,60.4,52.8,48.2,40.5,35.9
		c-0.3-0.3-0.3-0.5,0-0.8C51.5,24.2,62.4,13.3,73.3,2.4C74,1.7,74.9,1.3,75.8,1C76.2,1,76.7,1,77.2,1z M76.7,45.2
		c4.8,0,8.7-3.9,8.7-8.7c0-4.8-4-8.8-8.8-8.7c-4.8,0-8.7,4-8.7,8.8C67.9,41.3,71.9,45.2,76.7,45.2z"/>
	<path class="st1" d="M1,75.8c0.3-1.3,1.2-2.3,2.1-3.2C14.5,61.1,26,49.7,37.4,38.3c0.4-0.4,0.5-0.4,0.9,0
		c12.2,12.2,24.4,24.4,36.6,36.6c0.4,0.4,0.3,0.5,0,0.9C63.3,87.4,51.7,99,40.1,110.6c-2.1,2.1-4.6,2.1-6.7,0
		C23.1,100.4,12.8,90.1,2.6,79.9c-0.8-0.8-1.3-1.7-1.6-2.7C1,76.7,1,76.2,1,75.8z M59.1,76.7c0-4.8-3.9-8.7-8.7-8.7
		c-4.8,0-8.7,3.9-8.8,8.7c0,4.8,3.9,8.8,8.8,8.8C55.2,85.4,59.1,81.5,59.1,76.7z M31.9,76.5c0-4.8-3.9-8.7-8.7-8.7
		c-4.8,0-8.7,3.9-8.7,8.7c0,4.9,3.9,8.8,8.8,8.8C28,85.2,31.9,81.3,31.9,76.5z"/>
	<path class="st2" d="M74.1,97.8c-0.1-2.4,1.1-4,3.2-4.4c0.4-0.1,0.8-0.1,1.1,0c0.3,0.1,0.3,0,0.3-0.3c-0.3-2.2,1.1-4,3.3-4.4
		c0.8-0.1,1.4,0,2,0.6c2.3,2.4,4.7,4.8,7.1,7.1c0.4,0.4,0.3,0.5,0,0.9c-0.8,0.8-1.6,1.6-2.4,2.4c-0.4,0.4-0.6,0.3-1,0
		c-1.6-1.7-3.3-3.3-5-5c-0.2-0.2-0.3-0.4-0.5-0.4c-0.4-0.1-0.9-0.2-1.2,0.3c-0.3,0.5-0.2,0.9,0.2,1.3c1.3,1.3,2.6,2.6,3.9,3.9
		c0.5,0.5,1,1,1.5,1.5c0.3,0.2,0.2,0.4,0,0.6c-1,1-1.9,1.9-2.9,2.9c-0.3,0.3-0.4,0.2-0.6,0c-1.7-1.7-3.4-3.4-5.1-5.1
		c-0.1-0.1-0.2-0.3-0.4-0.3c-0.4-0.2-0.9-0.3-1.3,0.1c-0.3,0.3-0.3,1,0,1.3c0.3,0.3,0.6,0.7,1,1c1.4,1.4,2.9,2.9,4.4,4.3
		c0.3,0.3,0.4,0.5,0,0.8c-0.9,0.8-1.7,1.7-2.6,2.6c-0.3,0.3-0.4,0.3-0.7,0c-2.9-2.9-5.7-5.8-8.6-8.6c-0.3-0.3-0.2-0.5,0-0.7
		c0.9-0.9,1.9-1.8,2.7-2.8c0.3-0.3,0.5-0.3,0.7,0C73.5,97.5,73.7,97.8,74.1,97.8c0,0.1,0,0.1,0,0.2C74.1,97.9,74.1,97.9,74.1,97.8z"
		/>
	<path class="st2" d="M65.2,120.8c-0.1,1.6-0.5,3.1-1.7,4.3c-1.2,1.2-2.4,2.4-3.6,3.6c-0.3,0.3-0.4,0.4-0.7,0
		c-4.3-4.3-8.5-8.6-12.8-12.8c-0.3-0.3-0.3-0.4,0-0.7c1.4-1.3,2.7-2.8,4.1-4.1c1.6-1.4,3.5-1.7,5.5-1.3c4.3,0.9,8.5,5.4,9.2,9.8
		C65.1,120,65.1,120.4,65.2,120.8z M60,120.5C60,120.5,60,120.5,60,120.5c0-0.1,0-0.3,0-0.4c0-0.1,0-0.2-0.1-0.4
		c-0.7-2.5-2.4-4.2-4.9-5c-0.6-0.2-1.2-0.2-1.8,0c-0.7,0.3-0.7,0.3-0.2,0.8c1.9,1.9,3.8,3.8,5.7,5.7c0.3,0.3,0.5,0.8,0.8,0.6
		c0.4-0.2,0.4-0.7,0.5-1.2C60,120.7,60,120.6,60,120.5z"/>
	<path class="st2" d="M71.3,126.3c2.4,0.1,4.5,1.3,5.6,3.8c1.2,2.5,0.8,4.8-0.9,7c-0.3,0.4-0.3,0.6,0,0.9c1.3,1.3,2.5,2.5,3.8,3.8
		c0.3,0.3,0.4,0.5,0,0.8c-1.1,1-2.1,2.1-3.1,3.1c-0.3,0.3-0.5,0.3-0.7,0c-4.4-4.4-8.8-8.8-13.2-13.2c-0.3-0.3-0.3-0.5,0-0.8
		c1.2-1.1,2.3-2.3,3.4-3.4C67.7,127,69.2,126.4,71.3,126.3z M73.7,132.6c0-1-0.5-1.9-1.4-2.3c-0.9-0.4-2.2-0.1-2.9,0.5
		c-0.3,0.2-0.1,0.3,0.1,0.5c1,1,2.1,2.1,3.1,3.1c0.2,0.2,0.4,0.2,0.6,0C73.5,133.8,73.7,133.2,73.7,132.6z"/>
	<path class="st2" d="M104.3,100.9c-0.1-0.1-0.1-0.2-0.2-0.3c-0.7-0.7-0.7-0.7,0-1.5c0.9-0.9,1.7-1.7,2.6-2.6c0.2-0.3,0.4-0.3,0.7,0
		c3,3,6,6,9,9c0.3,0.3,0.3,0.4,0,0.7c-1,1-2,2-3,3c-0.2,0.2-0.4,0.3-0.6,0c-0.3-0.4-0.7-0.7-1.1-1.2c0,0.4,0,0.6,0,0.9
		c0.1,2.4-1.5,3.8-3.9,3.5c-3.6-0.5-7.3-4.2-7.6-7.9c-0.2-2.1,1.2-3.6,3.3-3.6C103.6,100.9,103.9,100.9,104.3,100.9
		C104.3,100.9,104.3,101,104.3,100.9C104.4,100.9,104.3,100.9,104.3,100.9z M108.8,107.2c0.5,0,0.7-0.2,0.6-0.6c0-0.4-0.1-0.7-0.4-1
		c-0.7-0.7-1.4-1.4-2.1-2.1c-0.2-0.2-0.5-0.3-0.8-0.4c-0.6-0.1-1,0.2-0.8,0.8c0.5,1.6,1.6,2.7,3.2,3.3
		C108.6,107.2,108.7,107.2,108.8,107.2z"/>
	<path class="st2" d="M93.6,79.3c-0.7-3,1.6-4.9,3.7-4.6c0.7,0.1,1.4,0.4,1.9,0.9c2.2,2.2,4.3,4.3,6.5,6.5c0.3,0.3,0.2,0.5,0,0.7
		c-0.9,0.8-1.7,1.7-2.5,2.5c-0.3,0.3-0.5,0.3-0.8,0c-1.6-1.7-3.3-3.3-5-5c-0.1-0.1-0.2-0.2-0.3-0.3c-0.4-0.4-1.1-0.4-1.4-0.1
		c-0.3,0.3-0.3,1,0.1,1.4c0.8,0.8,1.5,1.5,2.3,2.3c1,1,2,2,3,3c0.3,0.2,0.3,0.4,0,0.6c-0.9,0.9-1.8,1.8-2.7,2.7
		c-0.3,0.3-0.4,0.2-0.6,0c-2.9-2.9-5.8-5.8-8.6-8.6c-0.2-0.2-0.3-0.4,0-0.6c0.9-0.9,1.8-1.8,2.7-2.7c0.3-0.3,0.4-0.3,0.6,0
		C92.8,78.5,93.1,78.9,93.6,79.3z"/>
	<path class="st2" d="M69.9,116.5c-1.1,0-2.1-0.3-3.1-0.8c-2.4-1.3-4.2-3.3-4.6-6.1c-0.5-3.8,2.6-6.7,6.4-5.9
		c3.2,0.6,6.2,3.8,6.5,7.1C75.4,113.7,73,116.4,69.9,116.5z M71.3,111.7c0-0.3,0-0.5-0.2-0.8c-0.8-1.5-1.9-2.6-3.4-3.4
		c-0.3-0.1-0.5-0.2-0.8-0.2c-0.6,0-0.9,0.4-0.9,0.9c0,0.3,0.1,0.5,0.2,0.8c0.7,1.5,1.9,2.6,3.3,3.4c0.2,0.1,0.5,0.2,0.7,0.2
		C70.9,112.7,71.3,112.4,71.3,111.7z"/>
	<path class="st2" d="M105.6,65.6c2.5,0.2,4.6,1.6,6.1,3.9c1,1.5,1.6,3.2,1.1,5c-0.6,2.8-3.5,4.6-6.3,4c-3.2-0.7-6-3.7-6.5-6.9
		C99.6,68.5,102.1,65.6,105.6,65.6z M104.8,69.5c-0.6,0-1,0.3-1,0.9c0,0.3,0.1,0.5,0.2,0.8c0.7,1.5,1.9,2.6,3.3,3.3
		c0.2,0.1,0.5,0.2,0.7,0.2c0.7,0.1,1.1-0.3,1-1c0-0.3-0.2-0.6-0.3-0.9c-0.7-1.3-1.7-2.3-3-3C105.5,69.6,105.2,69.5,104.8,69.5z"/>
	<path class="st2" d="M97.6,105.7c1.2,3.2,2.4,6.4,3.6,9.8c0.6-0.6,1.2-1.2,1.7-1.7c0.4-0.4,0.7-1,1.2-1c0.4,0,0.8,0.6,1.1,1
		c0.5,0.5,1,1,1.5,1.5c0.2,0.2,0.2,0.3,0,0.6c-2.5,2.5-4.9,4.9-7.5,7.5c-1.2-3.4-2.4-6.8-3.7-10.2c-0.9,0.9-1.7,1.7-2.5,2.5
		c-0.3,0.4-0.5,0.4-0.8,0c-0.6-0.7-1.2-1.4-1.8-2.1c-0.2-0.2-0.3-0.3,0-0.6c2.3-2.3,4.6-4.6,6.9-6.9
		C97.4,105.8,97.5,105.8,97.6,105.7z"/>
	<path class="st2" d="M86.9,121.7c-0.8,0.8-1.6,1.6-2.3,2.4c-0.3,0.3-0.5,0.3-0.8,0c-0.7-0.7-1.3-1.4-2-2c-0.2-0.2-0.2-0.3,0-0.5
		c2.3-2.3,4.7-4.7,7.1-7.1c1.2,3.3,2.4,6.5,3.7,9.9c0.9-0.9,1.7-1.7,2.5-2.5c0.3-0.3,0.5-0.3,0.8,0c0.7,0.8,1.5,1.5,2.2,2.2
		c0.2,0.2,0.3,0.4,0,0.6c-2.4,2.3-4.7,4.7-7.1,7c0,0-0.1,0.1-0.2,0.1C89.5,128.4,88.2,125.1,86.9,121.7z"/>
	<path class="st2" d="M111.8,58.5c0-1.7,0.9-3,2.1-4.1c0.9-0.8,2-1.3,3.2-1.7c0.3-0.1,0.4,0,0.5,0.2c0.3,0.9,0.6,1.8,0.9,2.7
		c0.1,0.3,0,0.4-0.3,0.6c-0.7,0.3-1.4,0.6-1.9,1.1c-0.3,0.3-0.6,0.6-0.4,1c0.2,0.4,0.6,0.4,1,0.4c0.7,0,1.3-0.3,1.8-0.6
		c1.4-0.8,3.3-0.6,4.7,0.5c1.3,1.1,1.8,2.7,1.3,4.3c-0.4,1.3-1.2,2.3-2.3,3c-1,0.7-2,1.1-3.2,1.4c-0.3,0.1-0.4,0-0.5-0.3
		c-0.2-0.8-0.4-1.5-0.6-2.3c-0.1-0.3,0-0.5,0.3-0.6c0.7-0.3,1.3-0.6,1.9-1.1c0.3-0.3,0.6-0.6,0.4-1c-0.2-0.4-0.6-0.5-0.9-0.5
		c-0.9,0-1.7,0.2-2.4,0.7c-1.5,1-3.9,0.5-5-1.6C111.9,60,111.8,59.2,111.8,58.5z"/>
	<path class="st2" d="M89.8,132.7c-0.1,0.1-0.2,0.2-0.3,0.3c-1,1-1.9,1.9-2.9,2.9c-0.2,0.2-0.4,0.2-0.6,0c-3-3-6.1-6.1-9.1-9.1
		c-0.2-0.2-0.2-0.4,0-0.6c1-1,1.9-1.9,2.9-2.9c0.2-0.2,0.4-0.2,0.6,0c3,3,6.1,6.1,9.1,9.1C89.6,132.5,89.7,132.6,89.8,132.7z"/>
	<path class="st2" d="M96.5,91.9c-0.1,0.1-0.2,0.2-0.2,0.3c-1,1-2,1.9-2.9,2.9c-0.2,0.2-0.3,0.2-0.5,0c-2.9-2.9-5.8-5.8-8.7-8.7
		c-0.2-0.2-0.2-0.4,0-0.6c1-1,1.9-1.9,2.9-2.9c0.2-0.2,0.4-0.2,0.6,0c2.9,2.9,5.8,5.8,8.7,8.7C96.4,91.7,96.4,91.8,96.5,91.9z"/>
	<path class="st2" d="M109,64.5c-0.2-0.3-0.4-0.6-0.6-0.9c-1.3-2-2.5-4-3.8-6c-0.2-0.3-0.2-0.5,0.1-0.8c1-0.9,1.9-1.8,2.8-2.8
		c0.2-0.3,0.4-0.3,0.5,0.1c1.1,2.5,2.2,5,3.3,7.6c0.1,0.3,0.1,0.4-0.1,0.6C110.5,63,109.7,63.7,109,64.5z"/>
	<path class="st2" d="M82.1,83.8c-1.6,0-2.8-1.3-2.8-2.9c0-1.6,1.3-2.8,2.9-2.8c1.6,0,2.8,1.3,2.8,2.8C85,82.6,83.7,83.8,82.1,83.8z
		"/>
	<path class="st2" d="M75.6,124.7c-1.6,0-2.8-1.2-2.9-2.8c0-1.6,1.2-2.9,2.8-2.9c1.6,0,2.9,1.3,2.9,2.8
		C78.4,123.5,77.1,124.7,75.6,124.7z"/>
	<path class="st2" d="M76.7,45.2c-4.8,0-8.7-3.9-8.8-8.7c0-4.8,3.9-8.8,8.7-8.8c4.8,0,8.8,3.9,8.8,8.7
		C85.4,41.3,81.5,45.2,76.7,45.2z"/>
	<path class="st2" d="M59.1,76.7c0,4.8-3.9,8.7-8.7,8.8c-4.8,0-8.8-3.9-8.8-8.8c0-4.8,3.9-8.7,8.8-8.7
		C55.2,67.9,59.1,71.8,59.1,76.7z"/>
	<path class="st2" d="M31.9,76.5c0,4.8-3.9,8.7-8.7,8.7c-4.9,0-8.8-3.9-8.8-8.8c0-4.8,3.9-8.7,8.7-8.7C28,67.7,31.9,71.6,31.9,76.5z
		"/>
	<path class="st0" d="M74.1,97.8c0.1,0,0.1,0.1,0,0.2C74.1,97.9,74,97.9,74.1,97.8C74,97.9,74,97.8,74.1,97.8z"/>
	<path class="st0" d="M60,120.5c0,0.1,0,0.2,0,0.3c0,0.4-0.1,1-0.5,1.2c-0.3,0.1-0.6-0.4-0.8-0.6c-1.9-1.9-3.8-3.8-5.7-5.7
		c-0.5-0.5-0.5-0.5,0.2-0.8c0.6-0.2,1.2-0.2,1.8,0c2.5,0.8,4.1,2.5,4.9,5c0,0.1,0.1,0.2,0.1,0.4C60,120.2,60,120.4,60,120.5
		C60,120.5,60,120.5,60,120.5z"/>
	<path class="st0" d="M73.7,132.6c0,0.7-0.2,1.2-0.6,1.7c-0.2,0.3-0.3,0.3-0.6,0c-1-1-2.1-2.1-3.1-3.1c-0.1-0.1-0.3-0.3-0.1-0.5
		c0.7-0.6,2-0.9,2.9-0.5C73.1,130.7,73.7,131.5,73.7,132.6z"/>
	<path class="st0" d="M108.8,107.2c0,0-0.2,0-0.2,0c-1.6-0.6-2.7-1.7-3.2-3.3c-0.2-0.6,0.2-0.9,0.8-0.8c0.3,0.1,0.6,0.2,0.8,0.4
		c0.7,0.7,1.4,1.4,2.1,2.1c0.3,0.3,0.4,0.6,0.4,1C109.4,107,109.2,107.2,108.8,107.2z"/>
	<path class="st0" d="M104.3,100.9C104.3,100.9,104.4,100.9,104.3,100.9C104.3,101,104.3,100.9,104.3,100.9
		C104.2,100.9,104.2,100.9,104.3,100.9z"/>
	<path class="st0" d="M71.3,111.7c0,0.6-0.4,1-1,0.9c-0.2,0-0.5-0.1-0.7-0.2c-1.5-0.8-2.6-1.9-3.3-3.4c-0.1-0.2-0.2-0.5-0.2-0.8
		c0-0.6,0.3-0.9,0.9-0.9c0.3,0,0.6,0.1,0.8,0.2c1.5,0.8,2.6,1.9,3.4,3.4C71.2,111.3,71.3,111.5,71.3,111.7z"/>
	<path class="st0" d="M104.8,69.5c0.4,0,0.7,0.2,1,0.3c1.3,0.7,2.3,1.7,3,3c0.2,0.3,0.3,0.6,0.3,0.9c0,0.7-0.4,1.1-1,1
		c-0.2,0-0.5-0.1-0.7-0.2c-1.4-0.8-2.6-1.9-3.3-3.3c-0.1-0.2-0.2-0.5-0.2-0.8C103.9,69.8,104.2,69.5,104.8,69.5z"/>
</g>
</svg>
